inDegrees=yes
name=ik_lifting_orientations
DataType=double
version=3
OpenSimVersion=4.5-2024-01-10-34fd6af
endheader
time	pelvis_tilt	pelvis_list	pelvis_rotation	pelvis_tx	pelvis_ty	pelvis_tz	hip_flexion_r	hip_adduction_r	hip_rotation_r	knee_angle_r	knee_angle_r_beta	ankle_angle_r	subtalar_angle_r	mtp_angle_r	hip_flexion_l	hip_adduction_l	hip_rotation_l	knee_angle_l	knee_angle_l_beta	ankle_angle_l	subtalar_angle_l	mtp_angle_l	lumbar_extension	lumbar_bending	lumbar_rotation	arm_flex_r	arm_add_r	arm_rot_r	elbow_flex_r	pro_sup_r	wrist_flex_r	wrist_dev_r	arm_flex_l	arm_add_l	arm_rot_l	elbow_flex_l	pro_sup_l	wrist_flex_l	wrist_dev_l
0.74	0.8991156434958801	14.57587916178777	-91.25496352569778	0	0.9399999998679526	0	44.87911597702956	-11.05540441637718	0	59.92807960840094	1.04594230356387	-5.381474412733141	0	0	44.87911597702956	-11.05540441637718	0	59.92807960840094	1.04594230356387	-5.381474412733141	0	0	22.85163703761277	0.9737377176743386	-13.11235131262696	-6.33777509336992	-0.4691294826307777	26.20045515701219	0.01909621995148429	2.907092486483204	0	0	0	-9.595567481881252	0	87.14966182504905	2.907092486483204	0	0
0.75	0.6445370405881938	15.68012428218155	-90.48228565298076	0	0.9399999998679526	0	44.87914799125031	-11.05447257101695	0	59.92809515971271	1.045942574985464	-5.381039290924456	0	0	44.87914799125031	-11.05447257101695	0	59.92809515971271	1.045942574985464	-5.381039290924456	0	0	25.763740227654	1.252833029983405	-13.74157027120058	-8.147051778834921	-1.037380406216774	25.86719736773955	0.01869806597672365	2.906548452189843	0	0	0	-9.596322009943844	0	87.15019518731539	2.906548452189843	0	0
0.76	0.5271605546228705	16.70571689918679	-90.03318230287567	0	0.9399999998679526	0	44.87925339735229	-11.05145508546828	0	59.92814636484099	1.045943468683546	-5.379640330109186	0	0	44.87925339735229	-11.05145508546828	0	59.92814636484099	1.045943468683546	-5.379640330109186	0	0	28.71939963184751	1.449898656335878	-14.17309585344483	-10.13539335770958	-1.775476231754828	25.60609376735755	0.01875985799919111	2.90475546195715	0	0	0	-9.598808645398007	0	87.15195300560858	2.90475546195715	0	0
0.77	0.1928870771173317	17.79503447799113	-89.09746974590392	0	0.9399999998679526	0	44.87933051814209	-11.04928092302997	0	59.9281842418304	1.045944129761722	-5.378635586789738	0	0	44.87933051814209	-11.04928092302997	0	59.9281842418304	1.045944129761722	-5.378635586789738	0	0	31.91974370167055	1.453852035547332	-15.29327579299909	-12.27378227124148	-2.562233174243091	25.43234810590675	0.0187202069812177	2.903437838300321	0	0	0	-9.600642669023463	0	87.15324478349872	2.903437838300321	0	0
0.78	-0.1059766574005518	18.9662160121203	-88.21301661202789	0	0.9399999998679526	0	44.87938616540026	-11.04769834705018	0	59.92821165991718	1.045944608297611	-5.377900705137749	0	0	44.87938616540026	-11.04769834705018	0	59.92821165991718	1.045944608297611	-5.377900705137749	0	0	35.12958192668243	1.326901466592194	-16.25483644250212	-14.39623363292283	-3.340140508412073	25.17579823402471	0.01888644022801	2.902486499418605	0	0	0	-9.601968481792674	0	87.15417746167854	2.902486499418605	0	0
0.79	-0.6101048881446993	20.18796713394926	-86.97969626045249	0	0.9399999998679526	0	44.8794168050461	-11.04684571402326	0	59.92822699111417	1.045944875877477	-5.377506549864444	0	0	44.8794168050461	-11.04684571402326	0	59.92822699111417	1.045944875877477	-5.377506549864444	0	0	38.33955349183799	1.069402563049751	-17.67916020773719	-16.4863002093195	-4.094290297887854	25.235223668276	0.01874900235415331	2.901959446528557	0	0	0	-9.602706714952603	0	87.15469417699067	2.901959446528557	0	0
0.8	-1.180655120515943	21.41817639195293	-85.72384052954391	0	0.9399999998679526	0	44.8794511927142	-11.04588598850402	0	59.92824415906542	1.045945175514752	-5.377062648179885	0	0	44.8794511927142	-11.04588598850402	0	59.92824415906542	1.045945175514752	-5.377062648179885	0	0	41.52026072898178	0.7422751270813975	-19.10248014811552	-18.48523498182748	-4.954010844022227	25.1456687631141	0.01887810407151543	2.901368423539607	0	0	0	-9.603533976870029	0	87.15527360759754	2.901368423539607	0	0
0.8100000000000001	-1.683460045643862	22.88909163503311	-84.76030360340857	0	0.9399999998679526	0	44.87948870775909	-11.04480990089703	0	59.92826250919956	1.045945495785011	-5.376562256303695	0	0	44.87948870775909	-11.04480990089703	0	59.92826250919956	1.045945495785011	-5.376562256303695	0	0	44.88410601039814	0.2805373249610211	-20.16642562454759	-20.54338506914222	-5.606505591833176	25.01704115602188	0.01876390879443167	2.900728792150558	0	0	0	-9.604423391417264	0	87.15590069214723	2.900728792150558	0	0
0.82	-1.930596560625661	24.34413017214353	-84.36368174514767	0	0.9399999998679526	0	44.87952222783581	-11.04384881744447	0	59.92827890365207	1.045945781922186	-5.376115440224373	0	0	44.87952222783581	-11.04384881744447	0	59.92827890365207	1.045945781922186	-5.376115440224373	0	0	48.19489841321797	-0.06168327051313443	-20.69062146126332	-22.53761840907261	-6.22265752898155	24.86239741074554	0.01845757872076501	2.900157262238388	0	0	0	-9.605218111560401	0	87.15646101108506	2.900157262238388	0	0
0.83	-1.871074193689289	25.77416496785986	-84.19093798987846	0	0.9399999998679526	0	44.87956234777571	-11.04266149379433	0	59.92829804071923	1.045946115927017	-5.375560165896286	0	0	44.87956234777571	-11.04266149379433	0	59.92829804071923	1.045946115927017	-5.375560165896286	0	0	51.26885804588841	-0.5839089829671272	-20.97652718941496	-24.34933676125343	-6.815166833575138	24.70208552930727	0.0182700869374124	2.899479787536882	0	0	0	-9.606152539441243	0	87.157125195275	2.899479787536882	0	0
0.84	-1.599806578644538	27.15186189584449	-84.17331472723284	0	0.9399999998679526	0	44.87960410305714	-11.04142660806457	0	59.92831795723342	1.045946463535766	-5.374982827919234	0	0	44.87960410305714	-11.04142660806457	0	59.92831795723342	1.045946463535766	-5.374982827919234	0	0	54.26076835181556	-1.222765162152765	-21.09537158777115	-26.13194715558735	-7.357847208941573	24.62470556504251	0.01795092750201413	2.898774654626247	0	0	0	-9.60712514409931	0	87.15781649509563	2.898774654626247	0	0
0.85	-1.368814622612269	28.3869938381201	-84.15718276904477	0	0.9399999998679526	0	44.8796439815056	-11.04024329845984	0	59.92833691791866	1.045946794462151	-5.374429351988478	0	0	44.8796439815056	-11.04024329845984	0	59.92833691791866	1.045946794462151	-5.374429351988478	0	0	57.13365514795904	-1.907536479834012	-21.30372280774589	-27.95496111447038	-7.885874908549249	24.65651816790786	0.0175512316597378	2.898101997518469	0	0	0	-9.608052026130331	0	87.15847595605547	2.898101997518469	0	0
0.86	-1.183104796173351	29.12915805788944	-84.23745491359762	0	0.9399999998679526	0	44.8796853148781	-11.0390073246206	0	59.92835643963427	1.045947135180364	-5.373850493873365	0	0	44.8796853148781	-11.0390073246206	0	59.92835643963427	1.045947135180364	-5.373850493873365	0	0	59.47043070545793	-2.59216581383046	-21.4407807296025	-29.72472763468352	-8.24641959824184	24.80326416697698	0.01730363322711591	2.897406541534284	0	0	0	-9.609008280281273	0	87.15915776826715	2.897406541534284	0	0
0.87	-1.100986809663159	29.4295805300989	-84.38636229927562	0	0.9399999998679526	0	44.87972790296753	-11.03772579916431	0	59.92837643842527	1.045947484225114	-5.37324972024272	0	0	44.87972790296753	-11.03772579916431	0	59.92837643842527	1.045947484225114	-5.37324972024272	0	0	61.23437229127153	-3.14250000911552	-21.73256591119361	-31.32345661741121	-8.508819421435726	25.035815769253	0.01717151388694899	2.89669149997563	0	0	0	-9.609989658367228	0	87.15985878150076	2.89669149997563	0	0
0.88	-1.164053135844978	29.92215052264027	-84.38096573442753	0	0.9399999998679526	0	44.87975909434115	-11.03679450852837	0	59.9283911696771	1.045947741333961	-5.37281385835071	0	0	44.87975909434115	-11.03679450852837	0	59.9283911696771	1.045947741333961	-5.37281385835071	0	0	63.18549658825815	-3.639493035047122	-22.04727644331937	-32.82019197194916	-8.791490578270917	25.28730828198565	0.01704904064877938	2.896166615379471	0	0	0	-9.610711423301236	0	87.16037336869178	2.896166615379471	0	0
0.89	-1.191750447817476	30.62436281759884	-84.28147777927173	0	0.9399999998679526	0	44.87978935345521	-11.03590370544579	0	59.92840561540352	1.04594799345945	-5.372398122889422	0	0	44.87978935345521	-11.03590370544579	0	59.92840561540352	1.04594799345945	-5.372398122889422	0	0	65.25883634947378	-3.701280700470106	-21.69215773124823	-34.09075168891369	-9.068867145029913	24.96106713475466	0.01692905894370671	2.895655270527044	0	0	0	-9.611417060306739	0	87.16087468221562	2.895655270527044	0	0
